<svg width="233" height="94" viewBox="0 0 233 94" fill="none" xmlns="http://www.w3.org/2000/svg">
<path d="M5.14039 91.3599H-6.10352e-05L66.8258 0H73.3827V93.0469H68.2687L68.2537 5.99541L5.14039 91.3599ZM29.2184 53.7858H232.487V56.2061H29.2184V53.7858Z" fill="black"/>
<path d="M83.7077 55.958H68.6334V0H84.8755C89.971 0 94.3323 1.07713 97.9594 3.23139C101.586 5.38565 104.364 8.47578 106.293 12.5018C108.239 16.5101 109.203 23.0349 109.186 28.6501C109.168 34.3889 108.159 39.2978 106.16 43.3767C104.161 47.438 101.268 50.5547 97.4817 52.7266C93.6954 54.8808 89.1041 55.958 83.7077 55.958ZM71.9508 52.8855H83.575C88.4229 52.8855 92.51 51.9231 95.8362 49.9984C99.1625 48.0561 101.675 45.2749 103.373 41.6551C105.09 38.0352 105.939 33.7002 105.921 28.6501C105.921 23.6706 105.098 17.6932 103.453 14.1439C101.808 10.5771 99.4102 7.84009 96.2609 5.93304C93.1292 4.02599 89.2899 3.07247 84.7428 3.07247H71.9508V52.8855Z" fill="black"/>
<path d="M122.806 54.7931C120.759 54.7931 118.859 54.4094 117.104 53.642C115.386 52.838 113.887 51.76 112.608 50.4078C111.365 49.0192 110.396 47.4478 109.702 45.6937C109.007 43.903 108.66 42.021 108.66 40.0476C108.66 38.0012 109.007 36.1009 109.702 34.3468C110.396 32.5561 111.383 30.9847 112.663 29.6326C113.942 28.2439 115.441 27.1659 117.159 26.3985C118.913 25.5945 120.814 25.1925 122.861 25.1925C124.908 25.1925 126.791 25.5945 128.509 26.3985C130.227 27.1659 131.726 28.2439 133.005 29.6326C134.284 30.9847 135.271 32.5561 135.966 34.3468C136.66 36.1009 137.008 38.0012 137.008 40.0476C137.008 42.021 136.66 43.903 135.966 45.6937C135.271 47.4478 134.284 49.0192 133.005 50.4078C131.762 51.76 130.263 52.838 128.509 53.642C126.791 54.4094 124.89 54.7931 122.806 54.7931ZM112.443 40.1024C112.443 42.222 112.9 44.1588 113.814 45.9129C114.764 47.6305 116.026 49.0009 117.597 50.0241C119.169 51.0108 120.906 51.5042 122.806 51.5042C124.707 51.5042 126.444 50.9925 128.015 49.9693C129.587 48.9461 130.848 47.5574 131.799 45.8033C132.749 44.0126 133.224 42.0758 133.224 39.9928C133.224 37.8733 132.749 35.9364 131.799 34.1823C130.848 32.4282 129.587 31.0395 128.015 30.0163C126.444 28.9931 124.707 28.4815 122.806 28.4815C120.906 28.4815 119.169 29.0113 117.597 30.0711C116.062 31.1309 114.819 32.5378 113.869 34.2919C112.918 36.0095 112.443 37.9463 112.443 40.1024Z" fill="black"/>
<path d="M207.325 14.2293H211.053V47.7767C211.053 49.2019 211.309 50.1338 211.821 50.5723C212.332 51.0108 212.954 51.2301 213.685 51.2301C214.343 51.2301 215.001 51.157 215.659 51.0108C216.317 50.8646 216.883 50.7185 217.359 50.5723L218.017 53.5872C217.322 53.8795 216.463 54.1171 215.44 54.2998C214.453 54.4825 213.594 54.5739 212.862 54.5739C211.181 54.5739 209.828 54.0805 208.805 53.0938C207.818 52.1071 207.325 50.755 207.325 49.0374V14.2293Z" fill="black"/>
<path d="M179.155 46.0226C179.155 44.2319 179.667 42.6971 180.69 41.418C181.714 40.1024 183.121 39.0975 184.912 38.4031C186.74 37.6723 188.842 37.3068 191.218 37.3068C192.607 37.3068 194.051 37.4165 195.549 37.6357C197.048 37.855 198.382 38.1839 199.552 38.6224V36.2105C199.552 33.7986 198.839 31.88 197.414 30.4548C195.988 29.0296 194.014 28.317 191.492 28.317C189.957 28.317 188.44 28.6094 186.941 29.1941C185.479 29.7422 183.943 30.5645 182.335 31.6608L180.909 29.0296C182.774 27.7506 184.601 26.8004 186.393 26.1792C188.184 25.5214 190.011 25.1925 191.876 25.1925C195.385 25.1925 198.163 26.1975 200.21 28.2074C202.257 30.2173 203.281 32.9946 203.281 36.5394V49.75C203.281 50.2617 203.39 50.6454 203.61 50.9012C203.829 51.1204 204.176 51.2484 204.651 51.2849V54.245C204.249 54.2815 203.902 54.318 203.61 54.3546C203.317 54.3911 203.098 54.3911 202.952 54.3546C202.038 54.318 201.343 54.0257 200.868 53.4775C200.393 52.9294 200.137 52.3447 200.1 51.7234L200.046 49.6404C198.766 51.2849 197.103 52.5639 195.056 53.4775C193.009 54.3546 190.925 54.7931 188.805 54.7931C186.977 54.7931 185.314 54.4094 183.816 53.642C182.353 52.838 181.202 51.7782 180.361 50.4627C179.557 49.1105 179.155 47.6305 179.155 46.0226ZM198.291 48.2152C198.693 47.7036 199.004 47.2102 199.223 46.7352C199.442 46.2601 199.552 45.8398 199.552 45.4744V41.3084C198.309 40.8333 197.012 40.4679 195.659 40.2121C194.343 39.9563 193.009 39.8284 191.656 39.8284C188.988 39.8284 186.831 40.3582 185.186 41.418C183.541 42.4778 182.719 43.9213 182.719 45.7485C182.719 46.8083 182.993 47.8132 183.541 48.7634C184.09 49.677 184.894 50.4444 185.954 51.0656C187.014 51.6503 188.257 51.9427 189.682 51.9427C191.474 51.9427 193.137 51.5955 194.672 50.9012C196.244 50.2068 197.45 49.3115 198.291 48.2152Z" fill="black"/>
<path d="M165.968 54.245L154.398 25.6858H158.291L168.051 50.5175L177.866 25.6858H181.54L169.971 54.245H165.968Z" fill="black"/>
<path d="M152.306 28.9748C149.82 29.0479 147.627 29.7422 145.726 31.0578C143.862 32.3734 142.546 34.1823 141.778 36.4846V54.245H138.05V25.6858H141.559V32.5378C142.546 30.5279 143.843 28.9017 145.452 27.6592C147.097 26.4167 148.833 25.7224 150.661 25.5762C151.026 25.5397 151.337 25.5214 151.593 25.5214C151.885 25.5214 152.123 25.5397 152.306 25.5762V28.9748Z" fill="black"/>
<path d="M89.1463 77.09V66.4445L84.2881 74.7727H83.696L78.8378 66.4445V77.09H77.9497V64.7196H78.8378L83.9921 73.5705L89.1463 64.7196H90.0344V77.09H89.1463Z" fill="black"/>
<path d="M96.8583 64.7196H97.6245L102.848 77.09H101.908L100.184 73.013H94.2812L92.5573 77.09H91.5995L96.8583 64.7196ZM99.9404 72.2812L97.2414 65.7999L94.4901 72.2812H99.9404Z" fill="black"/>
<path d="M111.434 66.7756C111.237 66.5549 111.016 66.3632 110.772 66.2006C110.529 66.0264 110.267 65.887 109.989 65.7824C109.71 65.6663 109.408 65.5792 109.083 65.5211C108.758 65.463 108.41 65.434 108.039 65.434C106.831 65.434 105.949 65.6663 105.392 66.1309C104.846 66.5839 104.573 67.1995 104.573 67.9777C104.573 68.5004 104.695 68.9186 104.939 69.2322C105.194 69.5342 105.589 69.7781 106.123 69.964C106.657 70.1498 107.348 70.3298 108.195 70.5041C109.089 70.6899 109.861 70.9106 110.511 71.1662C111.161 71.4101 111.661 71.7469 112.009 72.1767C112.369 72.6065 112.549 73.1872 112.549 73.919C112.549 74.4649 112.444 74.9469 112.235 75.3651C112.026 75.7716 111.724 76.1085 111.33 76.3756C110.935 76.6428 110.465 76.8461 109.919 76.9854C109.385 77.1248 108.787 77.1945 108.126 77.1945C107.487 77.1945 106.878 77.1248 106.297 76.9854C105.717 76.8461 105.171 76.6428 104.66 76.3756C104.15 76.1085 103.674 75.7658 103.233 75.3477L103.703 74.6333C103.958 74.9121 104.243 75.1618 104.556 75.3825C104.881 75.5916 105.229 75.7716 105.601 75.9226C105.984 76.0736 106.39 76.1956 106.82 76.2885C107.249 76.3698 107.696 76.4105 108.16 76.4105C109.24 76.4105 110.082 76.213 110.685 75.8181C111.301 75.4116 111.608 74.8134 111.608 74.0235C111.608 73.4776 111.469 73.0362 111.19 72.6994C110.912 72.3625 110.482 72.0896 109.902 71.8805C109.321 71.6598 108.596 71.4565 107.725 71.2707C106.855 71.0848 106.112 70.8758 105.496 70.6435C104.893 70.4112 104.434 70.0975 104.121 69.7026C103.819 69.3077 103.668 68.7734 103.668 68.0997C103.668 67.3563 103.848 66.7291 104.208 66.218C104.579 65.6953 105.096 65.3004 105.757 65.0333C106.419 64.7661 107.18 64.6325 108.039 64.6325C108.573 64.6325 109.066 64.6848 109.519 64.7893C109.983 64.8939 110.407 65.0565 110.79 65.2772C111.185 65.4863 111.55 65.7534 111.887 66.0786L111.434 66.7756Z" fill="black"/>
<path d="M121.681 66.7756C121.484 66.5549 121.263 66.3632 121.02 66.2006C120.776 66.0264 120.515 65.887 120.236 65.7824C119.957 65.6663 119.656 65.5792 119.33 65.5211C119.005 65.463 118.657 65.434 118.286 65.434C117.078 65.434 116.196 65.6663 115.639 66.1309C115.093 66.5839 114.82 67.1995 114.82 67.9777C114.82 68.5004 114.942 68.9186 115.186 69.2322C115.442 69.5342 115.836 69.7781 116.37 69.964C116.904 70.1498 117.595 70.3298 118.442 70.5041C119.336 70.6899 120.108 70.9106 120.758 71.1662C121.408 71.4101 121.908 71.7469 122.256 72.1767C122.616 72.6065 122.796 73.1872 122.796 73.919C122.796 74.4649 122.691 74.9469 122.482 75.3651C122.273 75.7716 121.971 76.1085 121.577 76.3756C121.182 76.6428 120.712 76.8461 120.166 76.9854C119.632 77.1248 119.034 77.1945 118.373 77.1945C117.734 77.1945 117.125 77.1248 116.544 76.9854C115.964 76.8461 115.418 76.6428 114.908 76.3756C114.397 76.1085 113.921 75.7658 113.48 75.3477L113.95 74.6333C114.205 74.9121 114.49 75.1618 114.803 75.3825C115.128 75.5916 115.476 75.7716 115.848 75.9226C116.231 76.0736 116.637 76.1956 117.067 76.2885C117.496 76.3698 117.943 76.4105 118.408 76.4105C119.487 76.4105 120.329 76.213 120.932 75.8181C121.548 75.4116 121.855 74.8134 121.855 74.0235C121.855 73.4776 121.716 73.0362 121.437 72.6994C121.159 72.3625 120.729 72.0896 120.149 71.8805C119.568 71.6598 118.843 71.4565 117.972 71.2707C117.102 71.0848 116.359 70.8758 115.743 70.6435C115.14 70.4112 114.681 70.0975 114.368 69.7026C114.066 69.3077 113.915 68.7734 113.915 68.0997C113.915 67.3563 114.095 66.7291 114.455 66.218C114.826 65.6953 115.343 65.3004 116.005 65.0333C116.666 64.7661 117.427 64.6325 118.286 64.6325C118.82 64.6325 119.313 64.6848 119.766 64.7893C120.23 64.8939 120.654 65.0565 121.037 65.2772C121.432 65.4863 121.797 65.7534 122.134 66.0786L121.681 66.7756Z" fill="black"/>
<path d="M129.665 77.1771C128.806 77.1771 128.022 77.0029 127.314 76.6544C126.606 76.2943 125.996 75.8181 125.485 75.2257C124.975 74.6333 124.58 73.9655 124.301 73.2221C124.023 72.4671 123.883 71.6946 123.883 70.9048C123.883 70.0801 124.029 69.2961 124.319 68.5527C124.609 67.7977 125.015 67.1298 125.538 66.5491C126.072 65.9567 126.687 65.4921 127.383 65.1552C128.092 64.8068 128.858 64.6325 129.682 64.6325C130.553 64.6325 131.336 64.8126 132.033 65.1726C132.741 65.5327 133.35 66.0147 133.861 66.6187C134.372 67.2227 134.767 67.8964 135.045 68.6398C135.324 69.3832 135.463 70.1382 135.463 70.9048C135.463 71.7411 135.318 72.5368 135.028 73.2918C134.738 74.0351 134.326 74.703 133.792 75.2954C133.269 75.8762 132.654 76.335 131.946 76.6718C131.249 77.0087 130.489 77.1771 129.665 77.1771ZM124.772 70.9048C124.772 71.6133 124.893 72.2928 125.137 72.9433C125.381 73.5938 125.718 74.1745 126.147 74.6856C126.588 75.1967 127.105 75.6032 127.697 75.9052C128.301 76.2072 128.962 76.3582 129.682 76.3582C130.413 76.3582 131.081 76.2014 131.685 75.8878C132.288 75.5742 132.805 75.156 133.234 74.6333C133.664 74.1106 133.989 73.5299 134.209 72.891C134.442 72.2406 134.558 71.5785 134.558 70.9048C134.558 70.1963 134.436 69.5168 134.192 68.8663C133.96 68.2159 133.623 67.6351 133.182 67.124C132.741 66.6129 132.219 66.2064 131.615 65.9044C131.023 65.6024 130.379 65.4514 129.682 65.4514C128.939 65.4514 128.266 65.6082 127.662 65.9218C127.058 66.2354 126.542 66.6536 126.112 67.1763C125.694 67.699 125.364 68.2855 125.12 68.936C124.888 69.5749 124.772 70.2311 124.772 70.9048Z" fill="black"/>
<path d="M145.695 65.5211H141.168V77.09H140.28V65.5211H135.752V64.7196H145.695V65.5211Z" fill="black"/>
<path d="M155.559 76.2885V77.09H147.322V64.7196H155.402V65.5211H148.211V70.3821H154.497V71.1487H148.211V76.2885H155.559Z" fill="black"/>
<path d="M157.689 77.09V64.7196H162.825C163.359 64.7196 163.841 64.83 164.271 65.0507C164.712 65.2714 165.089 65.5676 165.403 65.9392C165.728 66.2993 165.977 66.7059 166.151 67.1589C166.337 67.6119 166.43 68.0765 166.43 68.5527C166.43 69.1683 166.308 69.7433 166.064 70.2776C165.82 70.8119 165.478 71.2591 165.037 71.6192C164.607 71.9792 164.102 72.1999 163.522 72.2812L166.604 77.09H165.577L162.582 72.4206H158.577V77.09H157.689ZM158.577 71.6017H162.913C163.447 71.6017 163.911 71.4565 164.306 71.1662C164.7 70.8758 165.002 70.4983 165.211 70.0337C165.432 69.569 165.542 69.0754 165.542 68.5527C165.542 68.0184 165.414 67.5247 165.159 67.0717C164.915 66.6071 164.584 66.2354 164.166 65.9567C163.76 65.6663 163.301 65.5211 162.791 65.5211H158.577V71.6017Z" fill="black"/>
<path d="M172.482 64.7196H173.248L178.472 77.09H177.532L175.808 73.013H169.905L168.181 77.09H167.223L172.482 64.7196ZM175.564 72.2812L172.865 65.7999L170.114 72.2812H175.564Z" fill="black"/>
<path d="M180.053 77.09V64.7196H185.138C185.66 64.7196 186.136 64.83 186.566 65.0507C187.007 65.2714 187.39 65.5676 187.715 65.9392C188.04 66.2993 188.29 66.7059 188.464 67.1589C188.65 67.6119 188.742 68.0765 188.742 68.5527C188.742 69.2148 188.591 69.842 188.29 70.4344C187.999 71.0152 187.593 71.4914 187.071 71.8631C186.56 72.2348 185.95 72.4206 185.242 72.4206H180.941V77.09H180.053ZM180.941 71.6017H185.208C185.753 71.6017 186.223 71.4565 186.618 71.1662C187.013 70.8758 187.315 70.4983 187.523 70.0337C187.732 69.569 187.837 69.0754 187.837 68.5527C187.837 68.0068 187.709 67.5073 187.454 67.0543C187.21 66.5897 186.879 66.218 186.461 65.9392C186.055 65.6605 185.602 65.5211 185.103 65.5211H180.941V71.6017Z" fill="black"/>
<path d="M198.809 76.2885V77.09H190.572V64.7196H198.652V65.5211H191.46V70.3821H197.747V71.1487H191.46V76.2885H198.809Z" fill="black"/>
<path d="M205.919 77.1771C204.932 77.1771 204.108 77.0029 203.446 76.6544C202.784 76.3059 202.256 75.8355 201.861 75.2431C201.467 74.6391 201.182 73.9655 201.008 73.2221C200.834 72.4787 200.747 71.7179 200.747 70.9397V64.7196H201.635V70.9397C201.635 71.6133 201.705 72.2754 201.844 72.9259C201.983 73.5763 202.21 74.1629 202.523 74.6856C202.848 75.1967 203.283 75.6032 203.829 75.9052C204.386 76.2072 205.077 76.3582 205.901 76.3582C206.737 76.3582 207.428 76.2014 207.973 75.8878C208.531 75.5742 208.966 75.1618 209.279 74.6508C209.604 74.1281 209.831 73.5473 209.959 72.9085C210.098 72.258 210.167 71.6017 210.167 70.9397V64.7196H211.056V70.9397C211.056 71.7643 210.963 72.5542 210.777 73.3092C210.603 74.0526 210.313 74.7146 209.906 75.2954C209.5 75.8762 208.972 76.335 208.322 76.6718C207.672 77.0087 206.871 77.1771 205.919 77.1771Z" fill="black"/>
<path d="M222.441 65.5211H217.914V77.09H217.026V65.5211H212.498V64.7196H222.441V65.5211Z" fill="black"/>
<path d="M226.744 64.7196H227.51L232.734 77.09H231.794L230.07 73.013H224.167L222.443 77.09H221.485L226.744 64.7196ZM229.826 72.2812L227.127 65.7999L224.376 72.2812H229.826Z" fill="black"/>
</svg>
