<svg width="262" height="202" viewBox="0 0 262 202" fill="none" xmlns="http://www.w3.org/2000/svg">
<path d="M28.1265 152.051H22.8531L91.4078 58.3013H98.1343V153.782H92.888L92.8726 64.4535L28.1265 152.051ZM52.8275 113.494H261.355V115.978H52.8275V113.494Z" fill="black"/>
<path d="M108.727 115.723H93.2621V58.3013H109.924C115.152 58.3013 119.626 59.4066 123.347 61.6172C127.068 63.8278 129.917 66.9988 131.896 71.1301C133.892 75.2433 134.882 81.9388 134.863 87.7009C134.845 93.5898 133.811 98.6271 131.76 102.813C129.709 106.98 126.741 110.178 122.857 112.407C118.973 114.618 114.262 115.723 108.727 115.723ZM96.6654 112.57H108.59C113.564 112.57 117.756 111.583 121.169 109.608C124.581 107.615 127.159 104.761 128.901 101.046C130.662 97.3315 131.533 92.8831 131.515 87.7009C131.515 82.5911 130.671 76.4573 128.983 72.8152C127.295 69.155 124.835 66.3465 121.604 64.3895C118.392 62.4326 114.453 61.4541 109.788 61.4541H96.6654V112.57Z" fill="black"/>
<path d="M148.837 114.528C146.737 114.528 144.787 114.134 142.987 113.347C141.224 112.522 139.687 111.415 138.374 110.028C137.099 108.603 136.105 106.99 135.393 105.19C134.68 103.353 134.324 101.422 134.324 99.3966C134.324 97.2966 134.68 95.3466 135.393 93.5466C136.105 91.7091 137.118 90.0966 138.43 88.7091C139.743 87.2841 141.28 86.1778 143.043 85.3903C144.843 84.5653 146.793 84.1528 148.893 84.1528C150.993 84.1528 152.924 84.5653 154.687 85.3903C156.449 86.1778 157.987 87.2841 159.299 88.7091C160.612 90.0966 161.624 91.7091 162.337 93.5466C163.049 95.3466 163.405 97.2966 163.405 99.3966C163.405 101.422 163.049 103.353 162.337 105.19C161.624 106.99 160.612 108.603 159.299 110.028C158.024 111.415 156.487 112.522 154.687 113.347C152.924 114.134 150.974 114.528 148.837 114.528ZM138.205 99.4528C138.205 101.628 138.674 103.615 139.612 105.415C140.587 107.178 141.88 108.584 143.493 109.634C145.105 110.647 146.887 111.153 148.837 111.153C150.787 111.153 152.568 110.628 154.18 109.578C155.793 108.528 157.087 107.103 158.062 105.303C159.037 103.465 159.524 101.478 159.524 99.3403C159.524 97.1653 159.037 95.1778 158.062 93.3778C157.087 91.5778 155.793 90.1528 154.18 89.1028C152.568 88.0528 150.787 87.5278 148.837 87.5278C146.887 87.5278 145.105 88.0716 143.493 89.1591C141.918 90.2466 140.643 91.6903 139.668 93.4903C138.693 95.2528 138.205 97.2403 138.205 99.4528Z" fill="black"/>
<path d="M235.541 72.9028H239.366V107.328C239.366 108.79 239.629 109.747 240.154 110.197C240.679 110.647 241.316 110.872 242.066 110.872C242.741 110.872 243.416 110.797 244.091 110.647C244.766 110.497 245.348 110.347 245.835 110.197L246.51 113.29C245.798 113.59 244.916 113.834 243.866 114.022C242.854 114.209 241.973 114.303 241.223 114.303C239.498 114.303 238.11 113.797 237.06 112.784C236.048 111.772 235.541 110.384 235.541 108.622V72.9028Z" fill="black"/>
<path d="M206.643 105.528C206.643 103.69 207.168 102.115 208.218 100.803C209.268 99.4528 210.712 98.4216 212.549 97.7091C214.424 96.9591 216.58 96.5841 219.018 96.5841C220.443 96.5841 221.924 96.6966 223.462 96.9216C224.999 97.1466 226.368 97.4841 227.568 97.9341V95.4591C227.568 92.9841 226.837 91.0153 225.374 89.5528C223.912 88.0903 221.887 87.3591 219.299 87.3591C217.724 87.3591 216.168 87.6591 214.63 88.2591C213.13 88.8216 211.555 89.6653 209.905 90.7903L208.443 88.0903C210.355 86.7778 212.23 85.8028 214.068 85.1653C215.905 84.4903 217.78 84.1528 219.693 84.1528C223.293 84.1528 226.143 85.1841 228.243 87.2466C230.343 89.3091 231.393 92.1591 231.393 95.7966V109.353C231.393 109.878 231.505 110.272 231.73 110.534C231.955 110.759 232.312 110.89 232.799 110.928V113.965C232.387 114.003 232.03 114.04 231.73 114.078C231.43 114.115 231.205 114.115 231.055 114.078C230.118 114.04 229.405 113.74 228.918 113.178C228.43 112.615 228.168 112.015 228.13 111.378L228.074 109.24C226.762 110.928 225.055 112.24 222.955 113.178C220.855 114.078 218.718 114.528 216.543 114.528C214.668 114.528 212.962 114.134 211.424 113.347C209.924 112.522 208.743 111.434 207.88 110.084C207.055 108.697 206.643 107.178 206.643 105.528ZM226.274 107.778C226.687 107.253 227.005 106.747 227.23 106.259C227.455 105.772 227.568 105.34 227.568 104.965V100.69C226.293 100.203 224.962 99.8278 223.574 99.5653C222.224 99.3028 220.855 99.1716 219.468 99.1716C216.73 99.1716 214.518 99.7153 212.83 100.803C211.143 101.89 210.299 103.372 210.299 105.247C210.299 106.334 210.58 107.365 211.143 108.34C211.705 109.278 212.53 110.065 213.618 110.703C214.705 111.303 215.98 111.603 217.443 111.603C219.28 111.603 220.987 111.247 222.562 110.534C224.174 109.822 225.412 108.903 226.274 107.778Z" fill="black"/>
<path d="M193.115 113.965L181.246 84.6591H185.24L195.252 110.14L205.321 84.6591H209.09L197.221 113.965H193.115Z" fill="black"/>
<path d="M179.099 88.0341C176.549 88.1091 174.299 88.8216 172.349 90.1716C170.437 91.5216 169.087 93.3778 168.299 95.7403V113.965H164.474V84.6591H168.074V91.6903C169.087 89.6278 170.418 87.9591 172.068 86.6841C173.755 85.4091 175.537 84.6966 177.412 84.5466C177.787 84.5091 178.105 84.4903 178.368 84.4903C178.668 84.4903 178.912 84.5091 179.099 84.5466V88.0341Z" fill="black"/>
<path d="M114.306 137.408V126.484L109.322 135.03H108.714L103.731 126.484V137.408H102.82V124.714H103.731L109.018 133.796L114.306 124.714H115.217V137.408H114.306Z" fill="black"/>
<path d="M122.217 124.714H123.003L128.362 137.408H127.398L125.629 133.224H119.573L117.805 137.408H116.822L122.217 124.714ZM125.379 132.473L122.61 125.823L119.788 132.473H125.379Z" fill="black"/>
<path d="M137.17 126.824C136.968 126.597 136.742 126.401 136.491 126.234C136.241 126.055 135.973 125.912 135.688 125.805C135.402 125.685 135.092 125.596 134.759 125.536C134.425 125.477 134.068 125.447 133.687 125.447C132.448 125.447 131.543 125.685 130.972 126.162C130.412 126.627 130.132 127.259 130.132 128.057C130.132 128.594 130.257 129.023 130.507 129.345C130.769 129.655 131.174 129.905 131.722 130.096C132.27 130.286 132.978 130.471 133.848 130.65C134.765 130.841 135.557 131.067 136.223 131.329C136.89 131.58 137.402 131.925 137.76 132.366C138.129 132.807 138.314 133.403 138.314 134.154C138.314 134.714 138.206 135.209 137.992 135.638C137.778 136.055 137.468 136.401 137.063 136.675C136.658 136.949 136.176 137.158 135.616 137.301C135.068 137.444 134.455 137.515 133.776 137.515C133.121 137.515 132.496 137.444 131.9 137.301C131.305 137.158 130.745 136.949 130.221 136.675C129.697 136.401 129.209 136.049 128.756 135.62L129.239 134.887C129.501 135.173 129.793 135.429 130.114 135.656C130.448 135.87 130.805 136.055 131.186 136.21C131.579 136.365 131.996 136.49 132.436 136.586C132.877 136.669 133.336 136.711 133.812 136.711C134.919 136.711 135.783 136.508 136.402 136.103C137.033 135.686 137.349 135.072 137.349 134.261C137.349 133.701 137.206 133.248 136.92 132.903C136.634 132.557 136.194 132.277 135.598 132.062C135.003 131.836 134.258 131.627 133.365 131.436C132.472 131.246 131.71 131.031 131.079 130.793C130.459 130.554 129.989 130.233 129.668 129.827C129.358 129.422 129.203 128.874 129.203 128.183C129.203 127.42 129.388 126.776 129.757 126.252C130.138 125.715 130.668 125.31 131.347 125.036C132.026 124.762 132.806 124.625 133.687 124.625C134.235 124.625 134.741 124.678 135.205 124.786C135.682 124.893 136.116 125.06 136.509 125.286C136.914 125.501 137.289 125.775 137.635 126.109L137.17 126.824Z" fill="black"/>
<path d="M147.682 126.824C147.48 126.597 147.254 126.401 147.004 126.234C146.754 126.055 146.486 125.912 146.2 125.805C145.914 125.685 145.604 125.596 145.271 125.536C144.937 125.477 144.58 125.447 144.199 125.447C142.96 125.447 142.055 125.685 141.484 126.162C140.924 126.627 140.644 127.259 140.644 128.057C140.644 128.594 140.769 129.023 141.019 129.345C141.281 129.655 141.686 129.905 142.234 130.096C142.782 130.286 143.49 130.471 144.36 130.65C145.277 130.841 146.069 131.067 146.736 131.329C147.403 131.58 147.915 131.925 148.272 132.366C148.641 132.807 148.826 133.403 148.826 134.154C148.826 134.714 148.719 135.209 148.504 135.638C148.29 136.055 147.98 136.401 147.575 136.675C147.17 136.949 146.688 137.158 146.128 137.301C145.58 137.444 144.967 137.515 144.288 137.515C143.633 137.515 143.008 137.444 142.413 137.301C141.817 137.158 141.257 136.949 140.733 136.675C140.209 136.401 139.721 136.049 139.269 135.62L139.751 134.887C140.013 135.173 140.305 135.429 140.626 135.656C140.96 135.87 141.317 136.055 141.698 136.21C142.091 136.365 142.508 136.49 142.949 136.586C143.389 136.669 143.848 136.711 144.324 136.711C145.432 136.711 146.295 136.508 146.914 136.103C147.545 135.686 147.861 135.072 147.861 134.261C147.861 133.701 147.718 133.248 147.432 132.903C147.147 132.557 146.706 132.277 146.11 132.062C145.515 131.836 144.771 131.627 143.877 131.436C142.984 131.246 142.222 131.031 141.591 130.793C140.972 130.554 140.501 130.233 140.18 129.827C139.87 129.422 139.715 128.874 139.715 128.183C139.715 127.42 139.9 126.776 140.269 126.252C140.65 125.715 141.18 125.31 141.859 125.036C142.538 124.762 143.318 124.625 144.199 124.625C144.747 124.625 145.253 124.678 145.717 124.786C146.194 124.893 146.628 125.06 147.021 125.286C147.426 125.501 147.802 125.775 148.147 126.109L147.682 126.824Z" fill="black"/>
<path d="M155.872 137.497C154.991 137.497 154.187 137.319 153.461 136.961C152.734 136.592 152.109 136.103 151.585 135.495C151.061 134.887 150.656 134.202 150.37 133.439C150.085 132.664 149.942 131.872 149.942 131.061C149.942 130.215 150.09 129.41 150.388 128.647C150.686 127.873 151.103 127.187 151.639 126.591C152.186 125.983 152.818 125.507 153.532 125.161C154.259 124.803 155.045 124.625 155.89 124.625C156.783 124.625 157.587 124.809 158.302 125.179C159.028 125.548 159.653 126.043 160.177 126.663C160.701 127.283 161.106 127.974 161.392 128.737C161.678 129.5 161.821 130.274 161.821 131.061C161.821 131.919 161.672 132.736 161.374 133.51C161.077 134.273 160.654 134.959 160.106 135.566C159.57 136.162 158.939 136.633 158.212 136.979C157.498 137.325 156.718 137.497 155.872 137.497ZM150.853 131.061C150.853 131.788 150.978 132.485 151.228 133.153C151.478 133.82 151.823 134.416 152.264 134.941C152.716 135.465 153.246 135.882 153.854 136.192C154.473 136.502 155.152 136.657 155.89 136.657C156.64 136.657 157.325 136.496 157.945 136.174C158.564 135.853 159.094 135.423 159.534 134.887C159.975 134.351 160.308 133.755 160.535 133.099C160.773 132.432 160.892 131.752 160.892 131.061C160.892 130.334 160.767 129.637 160.517 128.969C160.279 128.302 159.933 127.706 159.481 127.181C159.028 126.657 158.492 126.24 157.873 125.93C157.266 125.62 156.605 125.465 155.89 125.465C155.128 125.465 154.437 125.626 153.818 125.948C153.199 126.269 152.669 126.699 152.228 127.235C151.799 127.771 151.46 128.373 151.21 129.041C150.972 129.696 150.853 130.37 150.853 131.061Z" fill="black"/>
<path d="M172.318 125.536H167.673V137.408H166.762V125.536H162.118V124.714H172.318V125.536Z" fill="black"/>
<path d="M182.436 136.586V137.408H173.987V124.714H182.276V125.536H174.898V130.525H181.347V131.311H174.898V136.586H182.436Z" fill="black"/>
<path d="M184.621 137.408V124.714H189.891C190.439 124.714 190.933 124.827 191.374 125.054C191.826 125.28 192.213 125.584 192.535 125.966C192.868 126.335 193.124 126.752 193.303 127.217C193.494 127.682 193.589 128.159 193.589 128.647C193.589 129.279 193.464 129.869 193.214 130.417C192.964 130.966 192.612 131.425 192.16 131.794C191.719 132.164 191.201 132.39 190.606 132.473L193.767 137.408H192.714L189.641 132.616H185.532V137.408H184.621ZM185.532 131.776H189.98C190.528 131.776 191.005 131.627 191.409 131.329C191.814 131.031 192.124 130.644 192.338 130.167C192.565 129.69 192.678 129.184 192.678 128.647C192.678 128.099 192.547 127.593 192.285 127.128C192.035 126.651 191.695 126.269 191.267 125.983C190.85 125.685 190.379 125.536 189.855 125.536H185.532V131.776Z" fill="black"/>
<path d="M199.797 124.714H200.583L205.942 137.408H204.978L203.209 133.224H197.154L195.385 137.408H194.403L199.797 124.714ZM202.959 132.473L200.19 125.823L197.368 132.473H202.959Z" fill="black"/>
<path d="M207.565 137.408V124.714H212.781C213.317 124.714 213.805 124.827 214.246 125.054C214.698 125.28 215.091 125.584 215.425 125.966C215.758 126.335 216.014 126.752 216.193 127.217C216.383 127.682 216.479 128.159 216.479 128.647C216.479 129.327 216.324 129.97 216.014 130.578C215.716 131.174 215.3 131.663 214.764 132.044C214.24 132.426 213.614 132.616 212.888 132.616H208.476V137.408H207.565ZM208.476 131.776H212.852C213.412 131.776 213.894 131.627 214.299 131.329C214.704 131.031 215.014 130.644 215.228 130.167C215.442 129.69 215.55 129.184 215.55 128.647C215.55 128.087 215.419 127.575 215.157 127.11C214.907 126.633 214.567 126.252 214.138 125.966C213.722 125.679 213.257 125.536 212.745 125.536H208.476V131.776Z" fill="black"/>
<path d="M226.805 136.586V137.408H218.356V124.714H226.645V125.536H219.267V130.525H225.716V131.311H219.267V136.586H226.805Z" fill="black"/>
<path d="M234.099 137.497C233.087 137.497 232.241 137.319 231.563 136.961C230.884 136.603 230.342 136.121 229.937 135.513C229.532 134.893 229.24 134.202 229.062 133.439C228.883 132.676 228.794 131.895 228.794 131.097V124.714H229.705V131.097C229.705 131.788 229.776 132.467 229.919 133.135C230.062 133.802 230.294 134.404 230.616 134.941C230.949 135.465 231.396 135.882 231.956 136.192C232.527 136.502 233.236 136.657 234.081 136.657C234.939 136.657 235.647 136.496 236.207 136.174C236.779 135.853 237.225 135.429 237.547 134.905C237.88 134.369 238.113 133.773 238.244 133.117C238.386 132.45 238.458 131.776 238.458 131.097V124.714H239.369V131.097C239.369 131.943 239.274 132.754 239.083 133.528C238.904 134.291 238.607 134.971 238.19 135.566C237.773 136.162 237.231 136.633 236.564 136.979C235.897 137.325 235.076 137.497 234.099 137.497Z" fill="black"/>
<path d="M251.049 125.536H246.405V137.408H245.494V125.536H240.849V124.714H251.049V125.536Z" fill="black"/>
<path d="M255.463 124.714H256.249L261.609 137.408H260.644L258.875 133.224H252.82L251.051 137.408H250.069L255.463 124.714ZM258.625 132.473L255.856 125.823L253.034 132.473H258.625Z" fill="black"/>
<path d="M94.8782 19.5845C95.8242 18.9616 96.0862 17.6899 95.4634 16.7439C94.8405 15.7979 93.5688 15.5359 92.6228 16.1587L93.7505 17.8716L94.8782 19.5845ZM80.8598 27.2466L79.5778 25.646V25.646L80.8598 27.2466ZM66.7974 39.8442L68.2343 41.3074V41.3074L66.7974 39.8442ZM51.563 56.5435L53.1761 57.8098V57.8098L51.563 56.5435ZM38.9653 75.2935L40.7802 76.2485V76.2485L38.9653 75.2935ZM32.52 90.2349L34.4502 90.9279H34.4502L32.52 90.2349ZM28.4185 104.004L30.4155 104.471V104.471L28.4185 104.004ZM26.3677 115.137L28.3952 115.445V115.445L26.3677 115.137ZM24.3169 141.504L22.2691 141.393H22.2691L24.3169 141.504ZM23.731 155.567L21.6807 155.521V155.521L23.731 155.567ZM23.731 169.043L21.6807 169.088V169.088L23.731 169.043ZM25.1958 186.622L27.1879 186.134V186.134L25.1958 186.622ZM29.5903 196.583L28.1053 197.997L28.1057 197.997L29.5903 196.583ZM29.5994 196.592L31.0844 195.178L31.0841 195.177L29.5994 196.592ZM34.8638 199.219L34.9971 201.266H34.9971L34.8638 199.219ZM40.7231 196.583L42.1431 198.062V198.062L40.7231 196.583ZM46.2896 186.622L48.2433 187.245V187.245L46.2896 186.622ZM47.4614 176.661L45.4153 176.799V176.799L47.4614 176.661ZM45.1177 169.043L46.965 168.153V168.153L45.1177 169.043ZM38.9653 160.84L40.4278 159.403V159.403L38.9653 160.84ZM32.52 155.567L33.6587 153.861V153.861L32.52 155.567ZM20.5083 150.001L19.3443 151.689H19.3443L20.5083 150.001ZM14.063 145.02L15.5407 143.598H15.5407L14.063 145.02ZM9.08252 138.282L10.9467 137.427V137.427L9.08252 138.282ZM7.91065 133.301L5.86336 133.421V133.421L7.91065 133.301ZM8.49658 128.321L6.52543 127.755H6.52542L8.49658 128.321ZM10.5474 123.926L12.3045 124.984H12.3045L10.5474 123.926ZM14.9419 118.36L13.4866 116.915H13.4866L14.9419 118.36ZM19.6294 114.258L20.8063 115.938H20.8063L19.6294 114.258ZM25.1958 111.329L24.3223 109.473L24.3223 109.473L25.1958 111.329ZM33.3989 108.399L32.6527 106.489H32.6527L33.3989 108.399ZM38.3794 106.348L37.5102 104.491V104.491L38.3794 106.348ZM43.3599 103.711L44.4004 105.479L44.4005 105.479L43.3599 103.711ZM47.4614 101.075L46.2052 99.4537H46.2052L47.4614 101.075ZM50.6841 98.145L49.1418 96.7933V96.7933L50.6841 98.145ZM52.4419 95.8013L50.5876 94.9253H50.5876L52.4419 95.8013ZM53.6138 91.4067L51.5675 91.2715V91.2715L53.6138 91.4067ZM53.0294 87.0182L55.014 86.5014L55.0136 86.5L53.0294 87.0182ZM53.0278 87.0122L51.0432 87.529L51.0436 87.5304L53.0278 87.0122ZM51.563 83.2036L49.7635 84.1872V84.1872L51.563 83.2036ZM48.9263 79.688L50.5288 78.4083V78.4083L48.9263 79.688ZM45.1177 75.2935L43.6252 76.6999H43.6252L45.1177 75.2935ZM42.188 72.3638L43.6103 70.8864C43.5744 70.8518 43.5372 70.8185 43.4989 70.7867L42.188 72.3638ZM36.9146 67.6763L38.3263 66.1887V66.1887L36.9146 67.6763ZM31.3481 62.1099L32.811 60.6726V60.6726L31.3481 62.1099ZM26.9536 57.4224L25.3845 58.7428V58.7428L26.9536 57.4224ZM20.8013 50.0981L19.1999 51.3793V51.3793L20.8013 50.0981ZM14.9419 41.3091L13.1492 42.305V42.305L14.9419 41.3091ZM9.96143 30.1763L11.9101 29.5372V29.5372L9.96143 30.1763ZM6.15284 17.8716L4.16943 18.3929L6.15284 17.8716ZM4.03755 1.54097C3.75572 0.443978 2.63796 -0.216839 1.54097 0.0649924C0.443978 0.346824 -0.216839 1.46458 0.0649924 2.56157L2.05127 2.05127L4.03755 1.54097ZM93.7505 17.8716L92.6228 16.1587C87.3706 19.6166 84.4857 21.7147 79.5778 25.646L80.8598 27.2466L82.1419 28.8472C86.9505 24.9955 89.7323 22.9724 94.8782 19.5845L93.7505 17.8716ZM80.8598 27.2466L79.5778 25.646C73.7542 30.3107 70.6542 33.1823 65.3604 38.3811L66.7974 39.8442L68.2343 41.3074C73.4616 36.1739 76.4563 33.4014 82.1419 28.8472L80.8598 27.2466ZM66.7974 39.8442L65.3604 38.3811C59.0337 44.5943 55.4785 48.2346 49.9499 55.2771L51.563 56.5435L53.1761 57.8098C58.5493 50.9653 61.9647 47.4646 68.2343 41.3074L66.7974 39.8442ZM51.563 56.5435L49.9499 55.2771C45.4722 60.9809 42.5411 64.799 39.3107 70.4064L41.0877 71.4301L42.8647 72.4538C45.9368 67.1211 48.7083 63.5009 53.1761 57.8098L51.563 56.5435ZM41.0877 71.4301L39.3107 70.4064C38.6096 71.6234 37.8961 72.9215 37.1505 74.3385L38.9653 75.2935L40.7802 76.2485C41.5044 74.8722 42.1926 73.6204 42.8647 72.4538L41.0877 71.4301ZM38.9653 75.2935L37.1505 74.3385C34.1328 80.0732 32.7576 83.5046 30.5899 89.5419L32.52 90.2349L34.4502 90.9279C36.5774 85.0034 37.8794 81.761 40.7802 76.2485L38.9653 75.2935ZM32.52 90.2349L30.5899 89.5419C28.671 94.8862 27.7179 97.9873 26.4214 103.538L28.4185 104.004L30.4155 104.471C31.6714 99.094 32.5769 96.145 34.4502 90.9279L32.52 90.2349ZM28.4185 104.004L26.4214 103.538C25.8135 106.141 25.4279 108.09 25.0733 110.178L27.0952 110.522L29.117 110.865C29.4573 108.861 29.8262 106.994 30.4155 104.471L28.4185 104.004ZM27.0952 110.522L25.0733 110.178C24.8337 111.59 24.6086 113.063 24.3402 114.829L26.3677 115.137L28.3952 115.445C28.6644 113.674 28.8843 112.236 29.117 110.865L27.0952 110.522ZM26.3677 115.137L24.3402 114.829C22.7685 125.169 22.823 131.173 22.2691 141.393L24.3169 141.504L26.3647 141.615C26.9286 131.21 26.8627 125.527 28.3952 115.445L26.3677 115.137ZM24.3169 141.504L22.2691 141.393C22.0464 145.503 21.8957 148.287 21.7827 151.748L23.8324 151.815L25.8821 151.882C25.9934 148.471 26.1417 145.73 26.3647 141.615L24.3169 141.504ZM23.8324 151.815L21.7827 151.748C21.7449 152.906 21.7114 154.139 21.6807 155.521L23.731 155.567L25.7812 155.612C25.8116 154.242 25.8448 153.024 25.8821 151.882L23.8324 151.815ZM23.731 155.567L21.6807 155.521C21.5632 160.819 21.566 163.797 21.6807 169.088L23.731 169.043L25.7813 168.999C25.6679 163.766 25.6651 160.848 25.7812 155.612L23.731 155.567ZM23.731 169.043L21.6807 169.088C21.8265 175.818 21.4937 180.116 23.2037 187.109L25.1958 186.622L27.1879 186.134C25.6143 179.7 25.9332 176.012 25.7813 168.999L23.731 169.043ZM25.1958 186.622L23.2037 187.109C23.7182 189.212 24.4723 191.413 25.3044 193.311C26.1095 195.148 27.0812 196.922 28.1053 197.997L29.5903 196.583L31.0753 195.168C30.5674 194.635 29.8274 193.414 29.061 191.665C28.3217 189.978 27.6447 188.002 27.1879 186.134L25.1958 186.622ZM29.5903 196.583L28.1057 197.997L28.1148 198.007L29.5994 196.592L31.0841 195.177L31.075 195.168L29.5903 196.583ZM29.5994 196.592L28.1144 198.006C28.8323 198.76 29.6923 199.684 30.7781 200.332C31.9649 201.04 33.3184 201.375 34.9971 201.266L34.8638 199.219L34.7305 197.173C33.8083 197.233 33.2934 197.056 32.8801 196.81C32.3658 196.503 31.8941 196.028 31.0844 195.178L29.5994 196.592ZM34.8638 199.219L34.9971 201.266C37.5734 201.098 40.0516 200.069 42.1431 198.062L40.7231 196.583L39.3032 195.103C37.9118 196.438 36.3459 197.068 34.7305 197.173L34.8638 199.219ZM40.7231 196.583L42.1431 198.062C45.4355 194.903 47.0106 191.108 48.2433 187.245L46.2896 186.622L44.3359 185.998C43.1656 189.665 41.8458 192.663 39.3032 195.103L40.7231 196.583ZM46.2896 186.622L48.2433 187.245C49.5417 183.177 49.793 180.75 49.5076 176.523L47.4614 176.661L45.4153 176.799C45.6682 180.545 45.4674 182.452 44.3359 185.998L46.2896 186.622ZM47.4614 176.661L49.5076 176.523C49.2701 173.006 48.338 171.001 46.965 168.153L45.1177 169.043L43.2703 169.934C44.6001 172.693 45.2335 174.105 45.4153 176.799L47.4614 176.661ZM45.1177 169.043L46.965 168.153C45.0781 164.238 43.2817 162.306 40.4278 159.403L38.9653 160.84L37.5029 162.278C40.2635 165.086 41.6797 166.634 43.2703 169.934L45.1177 169.043ZM38.9653 160.84L40.4278 159.403C38.0326 156.966 36.4586 155.731 33.6587 153.861L32.52 155.567L31.3813 157.273C33.9911 159.015 35.3382 160.076 37.5029 162.278L38.9653 160.84ZM32.52 155.567L33.6587 153.861C31.9119 152.695 30.2967 151.996 28.7881 151.44C27.1961 150.853 26.0257 150.519 24.6339 149.928L23.8324 151.815L23.0308 153.703C24.5109 154.331 26.1183 154.827 27.3692 155.288C28.7034 155.78 29.9962 156.348 31.3813 157.273L32.52 155.567ZM23.8324 151.815L24.6339 149.928C23.6661 149.517 22.6949 149.017 21.6723 148.312L20.5083 150.001L19.3443 151.689C20.634 152.578 21.8569 153.204 23.0308 153.703L23.8324 151.815ZM20.5083 150.001L21.6723 148.312C18.8038 146.335 17.6605 145.801 15.5407 143.598L14.063 145.02L12.5853 146.442C15.0778 149.032 16.7363 149.891 19.3443 151.689L20.5083 150.001ZM14.063 145.02L15.5407 143.598C13.4344 141.409 11.9753 139.67 10.9467 137.427L9.08252 138.282L7.21839 139.137C8.54543 142.03 10.4046 144.176 12.5853 146.442L14.063 145.02ZM9.08252 138.282L10.9467 137.427C10.2195 135.841 10.0615 134.954 9.95794 133.182L7.91065 133.301L5.86336 133.421C5.98822 135.558 6.22606 136.973 7.21839 139.137L9.08252 138.282ZM7.91065 133.301L9.95794 133.182C9.85961 131.499 9.98321 130.574 10.4677 128.887L8.49658 128.321L6.52542 127.755C5.92915 129.832 5.73482 131.221 5.86336 133.421L7.91065 133.301ZM8.49658 128.321L10.4677 128.887C10.9138 127.333 11.3506 126.569 12.3045 124.984L10.5474 123.926L8.79025 122.869C7.79104 124.529 7.12459 125.668 6.52543 127.755L8.49658 128.321ZM10.5474 123.926L12.3045 124.984C13.6706 122.714 14.4887 121.727 16.3972 119.805L14.9419 118.36L13.4866 116.915C11.3903 119.026 10.355 120.269 8.79025 122.869L10.5474 123.926ZM14.9419 118.36L16.3972 119.805C18.0948 118.095 18.9709 117.224 20.8063 115.938L19.6294 114.258L18.4524 112.579C16.3039 114.085 15.2167 115.173 13.4866 116.915L14.9419 118.36ZM19.6294 114.258L20.8063 115.938C22.5487 114.717 23.8187 114.244 26.0693 113.184L25.1958 111.329L24.3223 109.473C22.3099 110.421 20.5687 111.096 18.4524 112.579L19.6294 114.258ZM25.1958 111.329L26.0693 113.184C26.6981 112.888 27.2741 112.647 27.8231 112.439L27.0952 110.522L26.3673 108.604C25.7257 108.848 25.0522 109.13 24.3223 109.473L25.1958 111.329ZM27.0952 110.522L27.8231 112.439C28.8008 112.068 29.6922 111.798 30.7145 111.482C31.7282 111.169 32.8378 110.82 34.1452 110.309L33.3989 108.399L32.6527 106.489C31.491 106.943 30.4993 107.256 29.5037 107.564C28.5168 107.868 27.4908 108.178 26.3673 108.604L27.0952 110.522ZM33.3989 108.399L34.1452 110.309C36.0637 109.56 37.2656 109.134 39.2486 108.206L38.3794 106.348L37.5102 104.491C35.6828 105.346 34.6526 105.707 32.6527 106.489L33.3989 108.399ZM38.3794 106.348L39.2486 108.206C41.3082 107.242 42.4563 106.623 44.4004 105.479L43.3599 103.711L42.3193 101.944C40.4706 103.033 39.4372 103.589 37.5102 104.491L38.3794 106.348ZM43.3599 103.711L44.4005 105.479C45.9923 104.541 47.0845 103.961 48.7176 102.696L47.4614 101.075L46.2052 99.4537C44.8282 100.521 44.0092 100.949 42.3193 101.944L43.3599 103.711ZM47.4614 101.075L48.7176 102.696C50.0949 101.628 50.9749 100.925 52.2264 99.4967L50.6841 98.145L49.1418 96.7933C48.1512 97.9236 47.5168 98.4373 46.2052 99.4537L47.4614 101.075ZM50.6841 98.145L52.2264 99.4967C52.8511 98.7839 53.6496 98.0461 54.2962 96.6772L52.4419 95.8013L50.5876 94.9253C50.2569 95.6255 50.0252 95.7854 49.1418 96.7933L50.6841 98.145ZM52.4419 95.8013L54.2962 96.6772C55.132 94.9078 55.527 93.5563 55.6601 91.542L53.6138 91.4067L51.5675 91.2715C51.4722 92.7124 51.2308 93.5638 50.5876 94.9253L52.4419 95.8013ZM53.6138 91.4067L55.6601 91.542C55.7967 89.4752 55.4539 88.1908 55.014 86.5014L53.0294 87.0182L51.0448 87.535C51.4756 89.1894 51.6569 89.9175 51.5675 91.2715L53.6138 91.4067ZM53.0294 87.0182L55.0136 86.5L55.0121 86.494L53.0278 87.0122L51.0436 87.5304L51.0452 87.5364L53.0294 87.0182ZM53.0278 87.0122L55.0124 86.4954C54.581 84.8386 54.2281 83.8037 53.3625 82.2201L51.563 83.2036L49.7635 84.1872C50.4264 85.4002 50.6715 86.1016 51.0432 87.529L53.0278 87.0122ZM51.563 83.2036L53.3625 82.2201C52.4255 80.5057 51.4321 79.5394 50.5288 78.4083L48.9263 79.688L47.3238 80.9677C48.5624 82.5187 49.0543 82.8897 49.7635 84.1872L51.563 83.2036ZM48.9263 79.688L50.5288 78.4083C49.0787 76.5925 48.2082 75.5828 46.6102 73.887L45.1177 75.2935L43.6252 76.6999C45.1421 78.3097 45.9395 79.2343 47.3238 80.9677L48.9263 79.688ZM45.1177 75.2935L46.6102 73.887C46.0282 73.2694 45.2734 72.515 44.6764 71.9265C44.3753 71.6298 44.1095 71.3705 43.9189 71.1852C43.8236 71.0926 43.7469 71.0183 43.6938 70.967C43.6673 70.9413 43.6466 70.9214 43.6325 70.9078C43.6255 70.901 43.62 70.8957 43.6163 70.8921C43.6144 70.8903 43.613 70.889 43.612 70.888C43.6115 70.8875 43.6111 70.8871 43.6108 70.8869C43.6107 70.8867 43.6106 70.8866 43.6105 70.8865C43.6104 70.8865 43.6104 70.8865 43.6104 70.8864C43.6103 70.8864 43.6103 70.8864 42.188 72.3638C40.7657 73.8412 40.7657 73.8412 40.7657 73.8412C40.7657 73.8412 40.7657 73.8412 40.7657 73.8412C40.7657 73.8412 40.7658 73.8413 40.7658 73.8413C40.766 73.8415 40.7663 73.8417 40.7666 73.8421C40.7674 73.8428 40.7686 73.844 40.7702 73.8455C40.7734 73.8486 40.7784 73.8534 40.7849 73.8597C40.798 73.8723 40.8175 73.8912 40.8429 73.9157C40.8937 73.9649 40.9679 74.0367 41.0605 74.1267C41.2458 74.3068 41.5044 74.5591 41.7971 74.8476C42.3874 75.4295 43.0975 76.14 43.6252 76.6999L45.1177 75.2935ZM42.188 72.3638C43.4989 70.7867 43.4989 70.7867 43.4989 70.7867C43.4989 70.7867 43.4989 70.7867 43.499 70.7867C43.499 70.7867 43.499 70.7867 43.499 70.7867C43.499 70.7868 43.499 70.7867 43.4989 70.7867C43.4988 70.7866 43.4986 70.7864 43.4983 70.7862C43.4977 70.7857 43.4967 70.7848 43.4953 70.7837C43.4924 70.7813 43.488 70.7776 43.482 70.7726C43.4699 70.7625 43.4516 70.7472 43.4274 70.7269C43.3789 70.6863 43.3066 70.6257 43.2134 70.547C43.0269 70.3897 42.7566 70.1603 42.4245 69.8748L41.0877 71.4301L39.7509 72.9853C40.0936 73.2799 40.3735 73.5174 40.5684 73.6819C40.6659 73.7641 40.7422 73.8281 40.7946 73.872C40.8208 73.8939 40.8409 73.9108 40.8548 73.9223C40.8617 73.9281 40.8671 73.9326 40.8708 73.9357C40.8727 73.9372 40.8741 73.9384 40.8752 73.9393C40.8757 73.9397 40.8761 73.9401 40.8765 73.9403C40.8766 73.9405 40.8767 73.9406 40.8769 73.9407C40.8769 73.9407 40.877 73.9408 40.877 73.9408C40.877 73.9408 40.877 73.9408 40.877 73.9408C40.8771 73.9409 40.8771 73.9409 42.188 72.3638ZM41.0877 71.4301L42.4245 69.8748C41.4146 69.0069 39.8475 67.6324 38.3263 66.1887L36.9146 67.6763L35.5028 69.1638C37.0925 70.6724 38.7156 72.0955 39.7509 72.9853L41.0877 71.4301ZM36.9146 67.6763L38.3263 66.1887C36.0103 63.9908 35.1053 63.0076 32.811 60.6726L31.3481 62.1099L29.8853 63.5472C32.1327 65.8345 33.1184 66.9009 35.5028 69.1638L36.9146 67.6763ZM31.3481 62.1099L32.811 60.6726C30.8534 58.6803 30.126 58.0071 28.5227 56.1019L26.9536 57.4224L25.3845 58.7428C27.115 60.7992 27.9806 61.6086 29.8853 63.5472L31.3481 62.1099ZM26.9536 57.4224L28.5227 56.1019C25.8397 52.9136 25.5059 52.696 22.4027 48.817L20.8013 50.0981L19.1999 51.3793C22.33 55.2919 22.8357 55.7139 25.3845 58.7428L26.9536 57.4224ZM20.8013 50.0981L22.4027 48.817C18.9958 44.5584 17.8574 42.3342 16.7346 40.3131L14.9419 41.3091L13.1492 42.305C14.305 44.3856 15.5755 46.8488 19.1999 51.3793L20.8013 50.0981ZM14.9419 41.3091L16.7346 40.3131C13.8639 35.1459 13.1982 33.4645 11.9101 29.5372L9.96143 30.1763L8.01278 30.8154C9.3872 35.0059 10.1605 36.9254 13.1492 42.305L14.9419 41.3091ZM9.96143 30.1763L11.9101 29.5372C10.4579 25.1095 9.29501 21.7587 8.13625 17.3502L6.15284 17.8716L4.16943 18.3929C5.36781 22.9521 6.58231 26.4539 8.01278 30.8154L9.96143 30.1763ZM6.15284 17.8716L8.13625 17.3502C7.31551 14.2278 6.291 10.2761 5.47122 7.1033C5.06143 5.51728 4.70298 4.12657 4.44698 3.13239C4.31899 2.63531 4.21661 2.23739 4.14624 1.96376C4.11105 1.82695 4.08387 1.72121 4.06549 1.6497C4.0563 1.61394 4.04931 1.58674 4.04462 1.56849C4.04227 1.55936 4.0405 1.55247 4.03932 1.54787C4.03873 1.54557 4.03828 1.54384 4.03799 1.54269C4.03784 1.54211 4.03773 1.54168 4.03766 1.54139C4.03762 1.54125 4.03759 1.54114 4.03757 1.54107C4.03756 1.541 4.03755 1.54097 2.05127 2.05127C0.0649924 2.56157 0.0650027 2.56161 0.0650223 2.56169C0.0650413 2.56176 0.0650703 2.56187 0.0651083 2.56202C0.0651844 2.56232 0.0652977 2.56276 0.0654482 2.56334C0.065749 2.56452 0.0661985 2.56626 0.0667948 2.56859C0.0679873 2.57323 0.0697675 2.58015 0.0721228 2.58932C0.0768335 2.60765 0.0838448 2.63493 0.0930567 2.67077C0.111481 2.74245 0.138708 2.84836 0.173939 2.98535C0.244401 3.25933 0.346882 3.65766 0.474989 4.15517C0.7312 5.15018 1.08994 6.542 1.50007 8.12935C2.32014 11.3033 3.34641 15.2618 4.16943 18.3929L6.15284 17.8716ZM53.6017 23.4726L51.5529 23.5623C51.7679 28.471 50.6386 32.8794 48.7465 36.031C46.8447 39.1989 44.3296 40.8873 41.7598 40.9998L41.8496 43.0487L41.9393 45.0975C46.3203 44.9055 49.9114 42.0594 52.2631 38.1421C54.6245 34.2086 55.8958 28.9813 55.6505 23.3828L53.6017 23.4726ZM41.8496 43.0487L41.7598 40.9998C39.19 41.1124 36.5369 39.6505 34.3653 36.6611C32.2049 33.687 30.6944 29.3942 30.4793 24.4856L28.4305 24.5753L26.3817 24.6651C26.627 30.2635 28.3505 35.3597 31.0469 39.0716C33.7321 42.7682 37.5583 45.2894 41.9393 45.0975L41.8496 43.0487ZM28.4305 24.5753L30.4793 24.4856C30.2643 19.5769 31.3937 15.1685 33.2857 12.0169C35.1875 8.84895 37.7026 7.16062 40.2724 7.04803L40.1826 4.99922L40.0929 2.9504C35.7119 3.14233 32.1208 5.98851 29.7691 9.90576C27.4077 13.8393 26.1364 19.0666 26.3817 24.6651L28.4305 24.5753ZM40.1826 4.99922L40.2724 7.04803C42.8422 6.93545 45.4953 8.39737 47.6669 11.3868C49.8273 14.3609 51.3378 18.6537 51.5529 23.5623L53.6017 23.4726L55.6505 23.3828C55.4052 17.7844 53.6817 12.6882 50.9853 8.97629C48.3001 5.2797 44.4739 2.75847 40.0929 2.9504L40.1826 4.99922Z" fill="black"/>
</svg>
