<svg width="124" height="202" viewBox="0 0 124 202" fill="none" xmlns="http://www.w3.org/2000/svg">
<path d="M24.3096 0.0649982C25.4064 -0.216799 26.5246 0.443834 26.8066 1.54058L24.8203 2.05133L26.8066 1.54156V1.54254C26.807 1.54373 26.808 1.54618 26.8086 1.5484C26.8098 1.553 26.8112 1.56019 26.8135 1.5689C26.8182 1.58715 26.8258 1.61448 26.835 1.64996C26.8533 1.72139 26.88 1.8271 26.915 1.96344C26.9854 2.23704 27.0879 2.63544 27.2158 3.13238C27.4718 4.12649 27.8305 5.51724 28.2402 7.10308C29.06 10.2758 30.0846 14.2278 30.9053 17.3502C32.064 21.7585 33.2266 25.1101 34.6787 29.5377C35.9667 33.4647 36.6333 35.1459 39.5039 40.313C40.6267 42.3341 41.765 44.5584 45.1719 48.817C48.275 52.6959 48.609 52.9138 51.292 56.1021C52.8951 58.0071 53.6227 58.6803 55.5801 60.6724C57.8743 63.0074 58.7797 63.9911 61.0957 66.189C61.8621 66.9163 62.64 67.6261 63.3525 68.2623C66.114 63.7536 68.8346 60.2246 72.7188 55.2769C78.2473 48.2345 81.8032 44.5946 88.1299 38.3814C93.4235 33.1827 96.5233 30.3106 102.347 25.6461C107.255 21.7148 110.14 19.6166 115.392 16.1587C116.338 15.536 117.61 15.7978 118.232 16.7437C118.855 17.6896 118.593 18.9617 117.647 19.5845C112.502 22.9723 109.72 24.9956 104.911 28.8472C99.2256 33.4014 96.2302 36.1737 91.0029 41.3072C84.7334 47.4642 81.3185 50.9657 75.9453 57.8101C71.8966 62.9674 69.242 66.425 66.4932 70.9966C66.5435 71.0454 66.6092 71.109 66.6875 71.1851C66.8781 71.3703 67.1443 71.6297 67.4453 71.9263C68.0424 72.5148 68.7969 73.2697 69.3789 73.8873C70.9769 75.583 71.8478 76.593 73.2979 78.4087C74.2011 79.5397 75.1949 80.506 76.1318 82.2203C76.9969 83.8031 77.3491 84.8381 77.7803 86.4937H77.7812L77.7822 86.5005L77.7832 86.5015C78.2231 88.1907 78.5652 89.4751 78.4287 91.5416C78.2956 93.5557 77.9012 94.908 77.0654 96.6773C76.4188 98.046 75.6199 98.7838 74.9951 99.4966C73.7437 100.924 72.8635 101.629 71.4863 102.696C69.8534 103.961 68.7615 104.542 67.1699 105.479C65.2259 106.624 64.0771 107.242 62.0176 108.206C60.0347 109.133 58.8326 109.56 56.9141 110.309C55.6068 110.82 54.497 111.169 53.4834 111.482C52.8538 111.677 52.2744 111.855 51.6934 112.049C51.528 113.075 51.3573 114.175 51.1641 115.446C49.6317 125.527 49.6977 131.211 49.1338 141.616C48.9432 145.133 48.8091 147.647 48.7041 150.434C49.5952 150.758 50.4795 151.042 51.5576 151.44C53.066 151.996 54.6811 152.695 56.4277 153.861C59.2276 155.73 60.8021 156.967 63.1973 159.403C66.051 162.306 67.8475 164.238 69.7344 168.153C71.1073 171.001 72.0389 173.006 72.2764 176.523C72.5617 180.75 72.3109 183.177 71.0127 187.245C69.78 191.107 68.2044 194.903 64.9121 198.062C62.8208 200.069 60.3427 201.098 57.7666 201.266C56.088 201.375 54.7337 201.04 53.5469 200.332C52.4613 199.684 51.6016 198.76 50.8838 198.006L50.874 197.997C49.85 196.921 48.8782 195.148 48.0732 193.311C47.2412 191.413 46.4871 189.212 45.9727 187.109C44.2627 180.117 44.595 175.818 44.4492 169.088C44.3346 163.798 44.3327 160.819 44.4502 155.521C44.4692 154.664 44.4892 153.865 44.5107 153.106C43.7361 152.717 42.9379 152.258 42.1133 151.689C39.5053 149.891 37.8469 149.032 35.3545 146.442C33.1738 144.176 31.3143 142.03 29.9873 139.136C28.9951 136.973 28.7577 135.558 28.6328 133.42C28.5043 131.221 28.6988 129.832 29.2949 127.755C29.8941 125.668 30.5604 124.529 31.5596 122.869C33.1242 120.269 34.1597 119.026 36.2559 116.915C37.9857 115.172 39.0734 114.084 41.2217 112.579C43.3378 111.096 45.0796 110.42 47.0918 109.473C47.4191 109.319 47.7352 109.178 48.042 109.046C48.3464 107.358 48.6933 105.666 49.1904 103.538C50.4869 97.9872 51.4406 94.8857 53.3594 89.5416C55.527 83.5046 56.9023 80.0729 59.9199 74.3384C60.3732 73.477 60.8151 72.6595 61.249 71.8775C60.3571 71.0913 59.3065 70.1459 58.2715 69.1636C55.8873 66.901 54.9015 65.8345 52.6543 63.5474C50.7496 61.6089 49.8838 60.7991 48.1533 58.7427C45.6046 55.714 45.0988 55.292 41.9688 51.3795C38.3445 46.8491 37.0738 44.3857 35.918 42.3052C32.9293 36.9257 32.1566 35.0055 30.7822 30.815C29.3518 26.4538 28.1368 22.9521 26.9385 18.3931C26.1155 15.2621 25.0896 11.3034 24.2695 8.12945C23.8594 6.54217 23.5003 5.14984 23.2441 4.15484C23.1161 3.65757 23.0138 3.25884 22.9434 2.98492C22.9082 2.84819 22.8807 2.74208 22.8623 2.67047C22.8532 2.63486 22.8455 2.60769 22.8408 2.58941C22.8385 2.58054 22.8371 2.57353 22.8359 2.5689C22.8354 2.56668 22.8352 2.56426 22.835 2.56305L22.834 2.56207C22.5522 1.46526 23.2129 0.347059 24.3096 0.0649982ZM48.5498 155.613C48.4337 160.848 48.4374 163.767 48.5508 169C48.7027 176.012 48.3836 179.7 49.957 186.134C50.4138 188.002 51.0908 189.978 51.8301 191.665C52.5961 193.412 53.3359 194.634 53.8438 195.168L53.8535 195.177L54.4033 195.749C54.9015 196.255 55.2637 196.58 55.6494 196.81C56.0626 197.057 56.5782 197.232 57.5 197.172C59.1151 197.067 60.681 196.438 62.0723 195.103C64.6147 192.663 65.9343 189.665 67.1045 185.999C68.236 182.453 68.4375 180.545 68.1846 176.798C68.0027 174.105 67.3688 172.693 66.0391 169.934C64.4485 166.634 63.0321 165.086 60.2715 162.278C58.107 160.076 56.7598 159.015 54.1504 157.273C52.7654 156.348 51.4728 155.781 50.1387 155.289C49.6593 155.112 49.1272 154.929 48.5703 154.737C48.5634 155.022 48.5564 155.314 48.5498 155.613ZM47.248 113.918C45.8911 114.541 44.862 115.036 43.5752 115.938C41.7401 117.224 40.8636 118.096 39.166 119.805C37.2579 121.727 36.4392 122.714 35.0732 124.984C34.1196 126.569 33.6823 127.333 33.2363 128.886C32.7518 130.574 32.6282 131.499 32.7266 133.182C32.8301 134.955 32.9887 135.842 33.7158 137.427C34.7445 139.67 36.2035 141.41 38.3096 143.598C40.4294 145.801 41.573 146.335 44.4414 148.312C44.5206 148.367 44.6001 148.419 44.6787 148.471C44.7736 146.306 44.8889 144.147 45.0381 141.393C45.5919 131.173 45.5377 125.168 47.1094 114.829C47.1569 114.516 47.203 114.213 47.248 113.918ZM63.5488 76.2486C60.6481 81.7609 59.3459 85.0039 57.2188 90.9283C55.3457 96.145 54.4404 99.0946 53.1846 104.471C52.9256 105.58 52.7116 106.563 52.5215 107.486C53.4346 107.202 54.357 106.905 55.4219 106.489C57.4217 105.708 58.452 105.346 60.2793 104.491C62.2062 103.589 63.2394 103.032 65.0879 101.944C66.7777 100.949 67.5976 100.521 68.9746 99.4537C70.286 98.4374 70.9206 97.9236 71.9111 96.7935C72.7944 95.7857 73.0258 95.6253 73.3564 94.9253C73.9995 93.564 74.2417 92.7125 74.3369 91.272C74.4264 89.9181 74.2443 89.189 73.8135 87.5347V87.5337L73.8125 87.5308V87.5289C73.4408 86.1016 73.1952 85.4 72.5322 84.1871C71.8232 82.8898 71.3312 82.5182 70.0928 80.9673C68.7087 79.2342 67.9114 78.3094 66.3945 76.6998C65.8669 76.1399 65.1568 75.4292 64.5664 74.8472C64.5068 74.7885 64.448 74.7318 64.3916 74.6763C64.116 75.1828 63.8344 75.7058 63.5488 76.2486ZM24.6377 100.489H21.0381L17.8877 92.689H6.71289L3.60059 100.489H0L10.9131 73.8638H13.7627L24.6377 100.489ZM110.476 73.8638C113.325 73.8639 115.701 74.4637 117.601 75.6636C119.525 76.8386 120.963 78.4386 121.913 80.4634C122.863 82.4633 123.338 84.6884 123.338 87.1382C123.338 89.8382 122.813 92.189 121.763 94.189C120.713 96.1889 119.225 97.7385 117.3 98.8384C115.375 99.9383 113.1 100.489 110.476 100.489H101.25V73.8638H110.476ZM104.625 97.4888H110.476C112.525 97.4888 114.25 97.0382 115.65 96.1382C117.05 95.2133 118.113 93.9762 118.838 92.4263C119.563 90.8513 119.925 89.0882 119.925 87.1382C119.925 85.1385 119.55 83.3639 118.8 81.814C118.075 80.264 117.012 79.0513 115.612 78.1763C114.212 77.3015 112.5 76.8639 110.476 76.8638H104.625V97.4888ZM7.3877 90.064H17.1377L12.3379 77.7632L7.3877 90.064ZM62.8623 2.95074C67.243 2.75897 71.0688 5.27984 73.7539 8.97613C76.4502 12.6881 78.1747 17.785 78.4199 23.3834C78.6651 28.9815 77.3935 34.2088 75.0322 38.1421C72.6806 42.0593 69.089 44.9053 64.708 45.0972C60.3274 45.2889 56.5015 42.7681 53.8164 39.0718C51.1202 35.36 49.3958 30.2638 49.1504 24.6656C48.9051 19.0672 50.1768 13.8393 52.5381 9.90582C54.8897 5.9886 58.4813 3.14272 62.8623 2.95074ZM63.041 7.0484C60.4714 7.1612 57.9563 8.84947 56.0547 12.0171C54.1628 15.1688 53.033 19.5775 53.248 24.4859C53.4632 29.3943 54.9745 33.6867 57.1348 36.6607C59.3063 39.6501 61.9595 41.1121 64.5293 40.9996C67.0989 40.8868 69.614 39.1984 71.5156 36.0308C73.4075 32.8792 74.5373 28.4705 74.3223 23.5621C74.1072 18.6536 72.5958 14.3613 70.4355 11.3873C68.264 8.39782 65.6108 6.93581 63.041 7.0484Z" fill="black"/>
</svg>
